<svg width="50" height="50" fill="none" xmlns="http://www.w3.org/2000/svg"><path d="M49.316 25.098c0 3.398-.068 6.806.02 10.205.146 6.015-3.633 10.664-8.447 12.734-1.934.83-3.965 1.27-6.065 1.27-6.572.01-13.154.097-19.726-.03-4.952-.097-9.024-2.168-11.944-6.25C1.621 40.88.89 38.437.89 35.791V14.795c0-5.713 2.783-9.707 7.724-12.305 2.148-1.123 4.482-1.6 6.913-1.61 6.377 0 12.764-.04 19.141.02 4.951.039 9.082 1.933 12.129 5.917 1.7 2.227 2.52 4.786 2.52 7.598v10.684zm-44.824 0V35.84c0 1.601.371 3.105 1.201 4.463 2.178 3.564 5.47 5.303 9.551 5.37 6.553.099 13.115.04 19.678.02 1.611 0 3.174-.332 4.629-1.025 3.965-1.895 6.181-4.912 6.162-9.443-.04-6.934-.01-13.867-.01-20.801 0-1.963-.556-3.76-1.719-5.342-2.246-3.037-5.351-4.531-9.062-4.57-6.543-.078-13.086-.03-19.629-.02-1.396 0-2.744.283-4.053.772C7.646 6.602 4.307 9.99 4.463 14.98c.117 3.38.03 6.749.03 10.118z" fill="#000"/><path d="M25.156 35.45c-6.299 0-11.377-5.02-11.386-11.27-.01-6.153 5.107-11.192 11.367-11.192 6.279-.01 11.377 5.02 11.386 11.221 0 6.191-5.087 11.23-11.367 11.24zm0-3.614c4.287 0 7.764-3.428 7.754-7.646-.01-4.18-3.486-7.598-7.754-7.598-4.287 0-7.783 3.408-7.783 7.617.01 4.219 3.496 7.637 7.783 7.627zM37.842 9.57c1.318 0 2.392 1.123 2.392 2.5-.01 1.377-1.093 2.49-2.412 2.48-1.299-.009-2.363-1.122-2.363-2.47-.01-1.377 1.064-2.51 2.383-2.51z" fill="#000"/></svg>