<svg width="50" height="50" fill="none" xmlns="http://www.w3.org/2000/svg"><path d="M25 3.125c12.06 0 21.875 9.815 21.875 21.875S37.06 46.875 25 46.875 3.125 37.06 3.125 25 12.94 3.125 25 3.125zM25 0C11.194 0 0 11.194 0 25s11.194 25 25 25 25-11.194 25-25S38.806 0 25 0zm13.937 33.359l-.14-.428c-.33-.982-1.416-2.007-2.417-2.282l-3.696-1.01c-1-.272-2.429.094-3.164.83l-1.337 1.336a14.196 14.196 0 0 1-9.982-9.985l1.337-1.337c.732-.732 1.098-2.16.827-3.164l-1.008-3.696c-.271-1-1.303-2.087-2.285-2.417l-.422-.14c-.985-.33-2.392.003-3.125.738l-2.002 2.002c-.357.354-.585 1.37-.585 1.374a23.652 23.652 0 0 0 6.915 16.967 23.627 23.627 0 0 0 16.91 6.913c.033 0 1.08-.223 1.437-.58l2.002-2.002c.732-.73 1.062-2.137.735-3.12z" fill="#000"/></svg>